<?xml version="1.0" encoding="UTF-8"?>
<!-- Generator: Adobe Illustrator 16.0.0, SVG Export Plug-In . SVG Version: 6.00 Build 0)  -->
<!DOCTYPE svg PUBLIC "-//W3C//DTD SVG 1.1//EN" "http://www.w3.org/Graphics/SVG/1.1/DTD/svg11.dtd">
<svg version="1.1" id="Layer_1" xmlns="http://www.w3.org/2000/svg" xmlns:xlink="http://www.w3.org/1999/xlink" x="0px" y="0px" width="462px" height="324px" viewBox="0 0 462 324" enable-background="new 0 0 462 324" xml:space="preserve">
<g>
	<path fill="#C65D28" d="M301.471,155.612c3.731-4.934,6.695-7.531,12.234-9.239c6.424-1.979,29.049-8.224,33.396-9.314   c12.504-3.154,18.593-4.784,24.652-6.198c8.413-1.964,17.221-8.056,20.83-15.98c5.425-11.912-1.027-25.743-13.749-29.012   c-10.48-2.692-22.642,5.108-22.364,16.642c0.325,13.523,17.468,12.449,17.246,2.035c-0.128-6.054-9.275-8.76-11.851-1.932   c0.143-0.381-1.031-7.085,6.7-10.476c2.755-1.208,7.727-0.963,10.521-0.034c3.345,1.113,5.73,3.798,7.085,6.984   c2.975,6.998,1.197,15.261-4.771,20.039c-3.087,2.471-7.742,5.016-11.634,5.848c-6.126,1.311-16.361,4.003-28.891,7.158   c-12.378,3.117-28.847,6.658-38.824,14.778c-12.778,10.401-14.783,22.289-18.684,37.438c-3.022,11.738-5.947,23.512-8.556,35.354   c-0.79,3.58-1.535,6.962-2.233,9.932c-1.886,8.026-2.314,10.973-4.839,22.145c0.459-20.229,0.703-40.479,0.405-60.729   c-0.077-5.295-0.245-15.562-0.38-20.855c-0.231-9.098-4.985-13.06-7.657-4.156c-3.1,10.332-6.03,25.931-9.008,36.358   c-2.99,10.465-5.965,20.937-8.936,31.408c-2.696,9.528-4.578,16.259-7.262,25.791c3.519-36.866,4.547-71.079,4.215-81.146   c-0.34-10.312-4.585-19.243-13.703-21.634c-5.251-1.38-14.568,0.388-18.229,6.245c-2.405,3.85-3.281,7.423-1.807,10.58   c2.409,5.148,9.564,4.271,11.527-0.48c2.308-5.586-1.668-8.831-6.005-8.853c2.66-3.291,7.289-3.887,9.997-3.532   c6.134,0.804,8.966,8.408,9.209,15.85c0.293,8.904-4.366,70.479-5.838,87.774c-0.763,8.954-1.597,18.317-2.293,27.25   c-0.302,3.885-0.84,10.171-1.171,14.054c-0.546,6.415-0.47,9.233,2.225,9.017c2.928-0.234,3.48-3.691,4.193-6.252   c1.534-5.504,3.084-12.21,4.625-17.716c5.453-19.47,10.092-37.727,15.604-57.177c1.979-6.985,3.965-13.973,5.955-20.958   c1.004-3.521,2.008-7.037,3.014-10.56c0.524-1.828,1.047-3.662,1.57-5.492c0.411-1.438,0.392,25.027,0.185,39.936   c-0.141,10.349-2.092,51.708-1.185,60.163c0.249,2.333,0.389,5.687,2.695,6.462c3.64,1.22,4.298-4.056,4.907-6.788   c4.521-20.258,9.734-44.297,14.481-64.479c0.714-3.028,1.465-6.443,2.263-10.059c3.334-15.141,8.174-33.065,12.47-47.934   C295.785,167.023,297.33,161.085,301.471,155.612z"/>
	<path fill="#C65D28" d="M91.588,129.276c6.909-3.306,10.227-12.203,9.196-19.471c-0.83-5.839-3.945-10.47-8.769-13.034   c-5.104-2.717-11.501-2.711-17.116,0.018c-12.587,6.113-24.759,27.11-13.313,67.888c9.399,33.484,7.414,62.244-10.008,76.834   c-8.617,7.219-18.934,9.047-27.598,4.894c-8.737-4.192-13.809-13.654-13.564-25.308c0.328-15.72,11.098-26.926,21.063-29.491   c3.737-0.959,10.932-2.774,15.069,4.376c1.934,3.341,2.961,9.082,1.908,12.917c-0.506,1.847-1.646,3.912-3.076,5.086   c-2.821,2.317-4.734,1.749-4.793,1.883c2.648-5.947-1.646-12.147-7.941-10.526c-5.106,1.314-6.789,8.544-3.285,12.097   c4.143,4.201,12.416,4.726,17.104,1.52c5.481-3.742,12.254-13.372,5.511-25.025c-4.554-7.869-12.832-11.136-22.15-8.741   c-12.324,3.174-25.636,16.785-26.033,35.768c-0.3,14.324,6.175,26.07,17.322,31.421c3.72,1.781,7.721,2.699,11.793,2.783   c7.866,0.167,18.249-3.145,25.171-8.943c9.529-7.98,16.341-19.309,18.972-33.568c2.708-14.672,2.564-31.353-2.563-49.627   c-10.355-36.886-6.406-55.56,3.305-60.276c3.719-1.802,7.872-1.852,11.113-0.127c2.949,1.568,4.788,4.375,5.321,8.121   c0.576,4.053-0.881,9.612-4.51,11.974c-2.406,1.565-4.874-0.679-7.284-0.698c-2.996-0.021-3.929,2.755-1.545,5.057   C83.858,129.943,87.831,131.074,91.588,129.276z"/>
	<path fill="#C65D28" d="M95.194,181.644c0.937-0.137,1.969-0.404,3.106-0.816c4.192-1.517,7.433-4.446,9.989-7.975   c1.085,2.225,2.875,3.099,3.869,3.422c0.736,0.241,1.499,0.352,2.28,0.354c6.594,0,13.022-5.617,16.351-10.999   c3.034-4.906,3.979-9.992,5.535-15.463c0.971-3.419,2.114-8.101,2.749-11.724c2.71-5.211,5.613-7.622,7.823-9.812   c-0.75,0.743-0.068,1.877-1.067,7.271c-1.093,5.902-2.381,11.772-3.652,17.638c-0.407,1.878-2.351,7.512-1.703,11.382   c0.303,1.805,1.168,2.986,3.014,2.762c6.119-0.743,7.051-7.623,8.068-12.582c0.992-4.837,1.937-9.859,2.232-14.387   c0.069-1.056,0.216-2.456,0.33-3.987c2.108-4.255,4.683-9.294,7.934-11.812c0.486,6.999-1.784,14.358-3.395,21.101   c-1.6,6.705-3.134,15.574,1.242,21.633c1.22,1.688,3.698,2.715,6.194,2.838c2.043,0.102,4.327-0.566,6.048-1.652   c0.866-0.547,1.797-1.323,2.13-2.333c0.651-1.975-2.652-2.148-3.803-2.836c-2.003-1.193-3.188-3.441-3.186-5.755   c0.004-5.137,1.785-10.675,2.545-15.785c0.965-6.481,5.137-22.99-6.562-21.663c-2.955,0.334-6.337,3.843-9.452,8.183   c-0.772-3.091-2.712-5.019-7.127-3.363c-2.362,0.886-4.516,2.579-6.484,4.676c-0.037-0.844-0.174-1.641-0.492-2.326   c-2.049-4.418-7.54-1.445-8.69,1.867c-2.408,6.938-2.284,14.855-4.267,21.972c-1.074,3.857-1.436,7.916-3.082,11.603   c-0.93,2.081-2.423,8.235-5.735,7.593c-2.201-0.43-1.21-2.702-0.935-4.479c0.872-5.619,2.435-11.072,3.441-16.662   c0.776-4.318,4.716-10.831,3.53-15.172c-0.64-2.342-3.258-3.513-5.488-2.687c-2.014,0.746-3.356,3.289-4.265,5.761   c-5.89-3.551-14.765,1.518-18.64,6.331c-5.503,6.834-8.929,16.01-8.933,24.799C86.644,174.204,87.531,182.774,95.194,181.644z    M96.756,164.52c0.893-4.453,2.862-8.864,4.693-12.817c1.555-3.357,5.22-9.715,9.252-10.763c0.279-0.072,0.638,0.013,0.915,0.212   c0.239,0.172,0.944,0.438,0.874,2.001c-0.842,2.83-2,6.512-2.487,8.731c-0.457,2.083-1.556,5.544-2.412,8.303   c-1.724,4.64-2.563,7.915-4.968,12.351c-0.99,1.826-2.76,5.753-5.12,3.464C95.593,174.146,96.288,166.853,96.756,164.52z"/>
	<path fill="#C65D28" d="M333.48,75.978c-5.888-3.253-14.562,1.743-18.381,6.485c-5.503,6.834-8.93,16.01-8.934,24.8   c-0.004,5.646,0.885,14.216,8.547,13.086c0.937-0.138,1.969-0.405,3.105-0.817c3.869-1.399,6.922-4.005,9.38-7.17   c1.087,2.208,2.866,3.077,3.855,3.4c0.736,0.24,1.501,0.351,2.281,0.353c2.317,0.001,10.108-1.439,8.006-5.339   c-1.103-2.043-3.129,0.142-4.791-0.692c-1.801-0.902-0.898-2.815-0.652-4.408c0.227-1.453,0.497-2.894,0.795-4.33   c0.849-4.118,1.902-8.187,2.646-12.333c0.777-4.318,4.716-10.83,3.531-15.171c-0.641-2.342-3.26-3.514-5.489-2.688   C335.621,71.805,334.373,73.829,333.48,75.978z M322.175,110.984c-0.985,1.83-2.792,6.012-5.153,3.723   c-1.91-1.854-1.215-9.147-0.747-11.483c0.894-4.453,2.861-8.862,4.693-12.817c1.556-3.357,5.221-9.714,9.252-10.761   c0.279-0.074,0.639,0.013,0.916,0.211c0.294,0.213,0.452,0.521,0.485,0.942c0.018,0.232,0.045,0.49,0.084,0.762   c-0.839,2.897-1.811,6.359-2.435,8.855c-0.481,1.925-1.202,5.052-2.044,7.578C325.627,102.79,324.912,105.893,322.175,110.984z"/>
	<path fill="#C65D28" d="M238.988,123.456c1.056-5.708,3.696-13.494,3.211-19.383c-0.134-1.618-1.115-3.34-2.299-4.421   c-1.57-1.433-3.757-1.014-5.658-0.441c-1.303,0.392-2.349,0.822-3.49,1.598c-1.756,1.192-3.364,2.673-4.857,4.328   c-0.196-1.544-0.591-2.891-1.491-3.576c-6.268-4.769-7.603,9.295-8.089,11.742c-1.44,7.253-2.985,14.5-5.226,21.556   c-0.859,2.708-1.899,6.945-3.524,9.242c-3.106,4.391-3.667-0.179-3.666-2.987c0.001-6.193,2.005-12.162,3.296-18.176   c0.701-3.268,2.815-8.349,1.665-11.627c-0.552-1.568-1.486-1.949-3.029-1.886c-2.74,0.113-3.739,1.535-4.726,3.44   c-0.082-0.055-0.159-0.116-0.244-0.168c-1.695-1.041-3.754-1.335-5.799-0.822c-8.377,2.095-14.8,11.533-17.273,19.14   c-1.227,3.773-1.801,7.887-2.738,11.752c-0.986,4.066-1.237,9.804,2.288,12.831c0.696,0.597,2.178,1.578,4.407,1.578   c1.338,0,2.948-0.354,4.818-1.357c3.991-2.14,6.863-4.923,9.056-7.968c1.058,1.443,2.405,2.081,3.22,2.347   c0.736,0.239,1.5,0.353,2.281,0.353c3.263,0,9.883-2.393,12.623-4.484c4.987-3.808,6.902-10.586,8.296-16.407   c0.812-3.395,1.514-6.878,2.197-10.266c0.326-1.611,0.698-3.213,0.979-4.832c0.221-1.28,0.847-2.62,1.257-3.857   c0.306-0.925,0.686-1.749,1.359-2.458c1.05-1.106,3.058-4.018,4.125-1.454c1.224,2.953-0.749,9.403-1.301,12.469   c-1.034,5.74-2.967,11.347-2.888,17.248c0.036,2.648,0.357,5.842,2.521,7.681c2.465,2.095,10.033,0.786,9.403-3.403   c-0.063-0.425-2.051-0.787-2.439-1.164c-0.756-0.735-0.533-2.34-0.472-3.285C236.832,135.568,237.525,131.371,238.988,123.456z    M189.857,146.402c-0.668,1.68-4.537,9.125-4.806,3.254c-0.287-6.236,1.945-13.846,3.605-19.866   c1.219-4.423,2.792-10.358,7.983-11.669c1.028-0.26,1.646-0.002,2.081,0.472c-0.292,1.018-0.554,2.044-0.812,3.061   c-0.979,3.863-2.238,9.324-3.184,12.555C193.488,138.429,191.48,142.327,189.857,146.402z"/>
	<path fill="#C65D28" d="M126.831,103.203c6.854,5.406,16.702,5.976,23.42,4.147c20.659-5.63,73.475-20.034,106.48-29.108   c-0.929,4.771-1.861,9.542-2.785,14.313c-1.898,9.812-3.819,19.62-5.629,29.448c-3.186,17.305,1.302,24.861,5.627,28.152   c2.53,1.926,5.681,2.891,9.125,2.891c3.853,0,9.542-1.408,11.411-5.229c0.649-1.329,1.119-3.744-0.103-4.927   c-1.876-1.818-4.822,3.05-6.612,3.857c-4.329,1.955-7.381,0.819-9.137-3.536c-3.069-7.614-0.08-19.842,0.973-27.604   c1.273-9.39,3.052-18.47,5.154-27.715c0.436-1.918,1.594-7.013,2.798-12.632c3.617-0.999,6.792-1.877,9.396-2.604   c-2.59,12.658-7.319,41.194-8.146,45.336c-0.519,2.59-1.804,11.782,0.281,14.138c1.409,1.594,3.359,1.079,4.503,0.397   c1.465-0.879,2.927-4.297,3.271-5.929c1.201-5.676,2.238-10.023,3.261-15.739c0.669-3.735,1.376-7.671,2.105-11.693   c2.352-3.821,4.623-8.446,7.688-11.729c3.385-3.628,3.351,1.388,3.053,4.04c-0.499,4.466-1.657,8.963-2.814,13.131   c-1.38,4.985-2.477,10.625-1.621,15.797c0.343,2.07,1.459,4.839,3.144,6.838c1.176,1.394,2.627,2.414,4.284,2.564   c1.671,0.149,4.617-0.715,4.924-2.617c0.371-2.328-2.338-2.623-3.177-4.298c-2.469-4.922,0.336-10.472,1.596-15.182   c1.216-4.55,2.629-9.121,3.336-13.784c0.797-5.235,0.394-14.668-7.349-14.076c-3.282,0.251-7.361,4.171-11.141,8.895   c1.232-6.563,2.519-13.164,3.835-19.421c17.933-6.352,38.659-19.544,46.062-34.262c6.547-13.018,3.206-23.749-3.011-28.608   c-6.902-5.396-19.126-4.268-27.587,3c-11.427,9.814-18.613,26.101-22.08,40.019c-0.88,3.535-2.514,12.341-3.378,16.321   c-0.636,0.195-1.268,0.381-1.894,0.556c-1.979,0.553-4.37,1.213-7.088,1.961c0.971-4.796,1.774-9.187,1.993-11.514   c0.283-3.003,1.089-10.867-3.336-10.871c-6.283-0.004-7.169,12.979-8.022,17.348c-0.521,2.676-1.04,5.351-1.561,8.027   c-32.484,8.857-88.155,23.82-109.573,29.657c-5.954,1.625-13.346,0.378-17.576-2.958c-6.84-5.394-6.733-15.323-2.677-21.808   c2.58-4.125,7.442-7.381,11.829-7.917c4.116-0.509,9.395,0.754,11.219,4.719c1.138,2.472,1.458,5.413-0.598,7.651   c-0.876-6.444-11.659-6.146-11.95,0.563c-0.339,7.815,8.889,8.163,13.263,5.49c5.314-3.25,7.099-10.419,4.28-16.537   c-3.232-7.022-10.377-9.276-17.021-8.461c-6.33,0.776-13.015,5.188-16.638,10.981C116.246,82.903,118.088,96.309,126.831,103.203z    M291.348,54.51c3.247-13.04,8.72-31.367,18.713-39.95c3.722-3.197,7.603-4.845,11.058-4.845c2.16,0,4.154,0.645,5.836,1.959   c4.086,3.195,6.034,10.746,1.173,20.414c-5.912,11.753-22.941,24.148-38.719,30.513C289.967,60.138,290.785,56.769,291.348,54.51z"/>
	<path fill="#C65D28" d="M212.195,250.042c-1.36,0.269-8.45,2.058-10.521,2.994c2.591-12.656,7.837-41.911,8.791-46.026   c0.736-3.178,1.611-10.289-0.472-12.646c-1.41-1.595-3.502-1.482-4.644-0.8c-1.466,0.879-2.698,2.771-3.043,4.404   c-1.2,5.676-1.915,9.61-2.938,15.326c-0.648,3.624-1.382,7.495-2.16,11.481c-0.218,0.382-0.41,0.721-0.559,0.963   c-2.355,3.826-4.63,8.465-7.704,11.754c-3.384,3.629-3.351-1.388-3.053-4.04c0.501-4.466,4.275-20.362,5.093-24.861   c0.628-3.459,3.089-9.648-2.594-10.541c-0.963-0.151-1.753-0.04-2.409,0.26c-0.558,0.257-2.072,1.74-2.309,2.102   c-1.094,1.652-3.048,4.855-4.139,6.595c-2.505,3.978-6.524,6.709-12.043,7.361c-0.691-2.264-1.687-4.414-3.038-6.33   c-1.494-2.119-3.325-2.713-4.596-2.838c-0.273-0.026-0.559-0.041-0.854-0.041c-6.862,0-13.874,6.405-17.367,12.166   c-3.786,6.245-5.883,14.338-5.377,21.714c0.395,5.754,5.796,12.977,11.689,12.979c0.344,0,0.693-0.021,1.042-0.062   c7.352-0.868,13.945-6.666,16.118-12.987c1.205-3.506,2.501-7.318,3.161-11.258c0.511-3.057,0.565-6.312,0.09-9.481   c8.137-1.354,11.855-6.298,12.532-6.6c-0.301,0.993-0.523,1.298-1.207,3.854c-1.215,4.55-2.753,10.858-3.464,15.521   c-0.796,5.234-0.392,14.668,7.351,14.076c3.363-0.257,7.566-4.368,11.423-9.25c-1.377,6.744-2.799,13.517-4.117,19.775   c-17.934,6.352-38.661,19.544-46.062,34.264c-6.546,13.018-3.205,23.747,3.011,28.607c6.902,5.396,19.126,4.268,27.587-3   c11.427-9.814,18.613-26.101,22.08-40.02c0.988-3.972,1.75-8.003,2.584-12.009c0.162-0.773,0.418-3.142,0.816-3.819   c0.598-1.015,6.234-2.501,8.81-3.142c2.474-0.615,6.018-1.471,6.558-3.678C216.96,249.944,214.806,249.524,212.195,250.042z    M147.923,248.898c-0.099,0.013-0.199,0.018-0.297,0.018c-0.7,0-1.255-0.305-1.747-0.958c-0.689-0.913-0.259-8.338,2.361-19.076   c1.662-6.812,3.821-11.874,5.878-15.272c0.628,2.131,2.901,3.696,5.525,4.569c-0.345,2.906-0.854,6.09-1.468,8.991   C156.348,235.794,152.802,248.321,147.923,248.898z M187.51,270.422c-3.247,13.039-8.72,31.367-18.712,39.949   c-3.723,3.196-7.605,4.847-11.059,4.847c-2.161,0-4.153-0.646-5.835-1.961c-4.085-3.195-6.034-10.746-1.172-20.414   c5.911-11.754,22.685-23.153,38.462-29.519C188.634,265.788,188.073,268.163,187.51,270.422z"/>
	<path fill="#C65D28" d="M448.773,193.624c-7.202-4.938-15.369-5.845-25.149-3.235c-9.778,2.609-21.144,5.227-30.896,7.921   c-12.928,3.575-23.991,6.304-36.915,9.893c-12.425,3.449-24.85,6.902-37.271,10.362c-4.749,1.321-9.5,2.646-14.25,3.969   c-2.127,0.592-4.197,1.351-6.306,1.999c-1.532,0.475-4.938,1.26-6.158,2.196c-3.334,2.558-2.211,5.072,0.988,4.938   c2.043-0.085,3.067-0.462,5.045-1.015c4.782-1.334,9.566-2.667,14.349-3.998c13.17-3.666,26.342-7.33,39.514-10.987   c23.538-6.537,50.312-12.607,73.877-19.044c7.805-2.132,15.479-0.922,19.71,2.414c6.838,5.395,6.812,15.866,2.755,22.351   c-2.578,4.126-6.655,6.906-11.04,7.443c-4.066,0.496-9.87-1.456-11.256-5.104c-2.156-5.675,0.996-7.404,0.981-7.07   c-0.166,4.011,6.405,5.687,9.571,2.963c3.416-2.941,2.367-8.681-1.255-10.699c-2.96-1.649-5.98-1.286-8.952,0.172   c-5.163,2.532-7.948,9.749-6.132,15.49c2.084,6.586,7.993,9.729,14.302,10.151c3.896,0.26,7.943-0.519,11.336-2.164   C459.853,225.659,461.94,202.65,448.773,193.624z"/>
	<path fill="#C65D28" d="M162.173,189.118c7.614-2.06,20.3-5.371,27.597-8.162c4.482-1.714,3.405-5.721-2.317-5.232   c-3.605,0.308-13.254,3.402-16.792,4.364c-4.332,1.181-9.21,1.898-13.544,3.071c-17.755,4.802-34.938,9.328-51.269,13.86   c-6.272,1.742-13.781,4.912-15.575,12.502c-1.739,7.359,2.864,14.663,11.025,14.021c8.365-0.658,10.657-9.681,4.256-12.389   c-3.149-1.333-7.893,0.89-7.894,5.606c0-0.274-1.016-1.152-1.171-1.41c-0.756-1.252-0.97-2.623-0.672-4.058   c1.181-5.676,7.65-7.012,12.368-8.321c4.898-1.36,9.61-2.326,15.075-3.747c-0.121,0.702-0.241,1.403-0.362,2.105   c-0.828,4.813-1.654,9.629-2.481,14.444c-1.08,6.293-1.837,8.417-2.917,14.71c-1.101,6.418-3.357,16.366-4.458,22.784   c-0.89,5.188-2.59,11.865-3.477,17.056c-0.425,2.479-1.43,6.708,1.525,8.033c0.223,0.103,0.443,0.177,0.658,0.229   c7.376,1.8,8.336-12.314,11.497-29.341c2.359-12.702,4.49-24.718,6.668-37.227c0.882-5.063,1.773-10.127,2.645-15.193   C142.513,194.271,152.732,191.673,162.173,189.118z"/>
	<path fill="#C65D28" d="M385.354,146.385c-1.174-2.498-0.846-5.464-3.674-6.918c-4.624-2.378-10.441,3.068-7.16,7.577   c0.306,0.417,0.868,1.019,1.633,1.729c-0.03,0.564-0.085,1.152-0.158,1.704c-1.56,8.569-4.755,18.002-6.925,26.443   c-0.685,2.662-3.746,12.609-8.368,12.515c-3.142-0.067,1.512-14.838,3.072-17.416c1.453-2.398,1.917-3.83,1.399-6.853   c-0.632-3.688-3.775-5.185-6.68-6.202c-1.446-0.506-5.688-2.483-5.753-3.873c-0.245-5.264-5.446-9.955-9.476-6.29   c-2.146,1.953-2.623,5.329-1.536,7.862c0.424,0.99,2.909,2.033,2.562,3.076c-0.171,0.513-1.025,6.323-2.222,10.426   c-1.673,5.736-3.668,12.652-5.654,18.29c-0.979,2.78-1.458,4.396-3.31,6.703c-3.138,3.909-4.186,0.874-3.584-1.935   c1.223-5.702,2.19-12.297,3.51-18.22c0.793-3.568,5.233-12.245,0.089-14.361c-3.687-1.515-5.97,0.874-7.444,3.987   c-5.883-2.989-14.381,1.948-18.146,6.626c-5.503,6.836-8.929,16.011-8.933,24.802c-0.003,5.646,0.884,14.215,8.546,13.085   c0.936-0.138,1.969-0.404,3.107-0.816c4.188-1.515,7.425-4.44,9.98-7.965c1.05,1.603,2.484,2.307,3.327,2.594   c0.776,0.263,1.592,0.384,2.43,0.384c4.999-0.003,11.544-4.844,14.018-8.676c4.925-7.624,8.449-13.265,11.709-30.035   c0.906,0.948,1.29,1.719,3.229,2.512c-1.699,5.937-2.988,14.727-1.523,20.498c0.002,0.355,1.13,3.048,1.866,3.792   c0.678,0.772,1.512,1.378,2.547,1.767c0.44,0.165,0.895,0.23,1.338,0.209c0.075,0.013,0.143,0.034,0.217,0.045   c0.402,0.059,0.809,0.086,1.219,0.086c3.74,0,7.783-2.355,10.597-6.268c3.108-4.319,8.644-12.775,12.226-32.165   c1.037,1.385,1.87,1.67,3.547,2.829c-2.086,6.713-4.789,18.65-0.108,23.732c1.417,1.538,4.06,3.116,8.591,1.9   c0.031-0.009,0.062-0.018,0.093-0.026c0.713-0.214,4.835-1.669,10.974-8.2c2.355,2.048,5.835,4.084,11.86,2.674   c3.752-0.877,7.163-2.319,10.08-4.946c4.644-4.179,7.147-10.276,8.529-16.142c1.125-4.772,2.322-9.499,3.052-14.434   c0.081-0.55,0.1-1.337,0.144-2.233c1.2-1.91,2.48-3.762,3.89-5.456c4.331-5.202,3.453,1.182,3.065,4.549   c-0.332,2.872-0.659,5.784-1.28,8.609c-0.158,0.722-0.31,1.418-0.453,2.079c-0.116,0.545-0.246,1.137-0.386,1.768   c-1.469,6.663-4.601,16.207,4.302,19.11c0.773,0.252,1.726,0.414,2.702,0.438c1.549,0.041,5.774-1.115,4.34-3.867   c-0.766-1.465-3.819-1.046-4.29-2.932c-0.682-2.746,0.376-4.909,0.817-7.592c1.097-6.675,3.499-13.031,4.054-19.826   c0.222-2.715,0.604-6.83-1.354-9.083c-4.775-5.498-12.382,1.614-15.628,5.531c-0.226-1.328-0.609-2.432-1.239-3.001   c-0.153-0.138-0.329-0.259-0.53-0.357c-2.235-1.093-4.538,1.628-5.342,3.378c-1.662,3.623-1.519,7.922-2.272,11.772   c-1.103,5.644-2.16,11.344-3.824,16.856c-1.838,6.086-2.862,11.7-8.011,12.372c-3.783,0.493-6.548-5.988-6.156-6.351   c2.257-2.087,4.299-5.013,6.346-8.066c3.199-4.778,8.629-18.87,1.682-23.109c-5.893-3.594-12.519,4.08-15.366,10.035   c-2.729,5.708-4.001,12.054-3.529,18.305c0.286,3.786,2.514,6.155,2.126,6.73c-1.341,1.982-5.987,6.216-8.177,6.714   c-4.601,1.048-4.443-2.065-3.681-5.196c1.137-4.666,4.66-10.424,4.888-15.228c0.118-2.448,0.013-3.511-1.444-5.428   C392.553,149.217,387.621,151.213,385.354,146.385z M314.797,199.448c-0.981,1.832-2.984,6.343-5.345,4.054   c-1.911-1.854-1.215-9.149-0.746-11.485c0.892-4.452,2.86-8.861,4.691-12.813c1.557-3.36,5.221-9.717,9.253-10.762   c0.28-0.076,0.639,0.011,0.915,0.209c0.245,0.177,0.374,0.438,0.438,0.758c-0.252,0.938-0.456,1.795-0.629,2.48   c-1.121,4.463-2.321,11.183-3.425,14.494C318.351,191.18,317.586,194.237,314.797,199.448z M411.219,156.735   c0.237-2.158,1.145-4.662,2.01-6.667c0.204-0.47,0.562-1.119,1.006-1.775c1.424-2.101,3.738-4.269,4.716-0.801   c1.673,5.926-4.812,13.025-7.901,17.35C410.74,162.379,410.92,159.468,411.219,156.735z"/>
</g>
</svg>